<svg xmlns:dc="http://purl.org/dc/elements/1.1/" xmlns:cc="http://web.resource.org/cc/" xmlns:rdf="http://www.w3.org/1999/02/22-rdf-syntax-ns#" xmlns:svg="http://www.w3.org/2000/svg" xmlns="http://www.w3.org/2000/svg" xmlns:sodipodi="http://sodipodi.sourceforge.net/DTD/sodipodi-0.dtd" xmlns:inkscape="http://www.inkscape.org/namespaces/inkscape" width="300" height="300" id="svg2" sodipodi:version="0.32" inkscape:version="0.45.1" version="1.0" sodipodi:docbase="C:\Documents and Settings\Martin\桌面" sodipodi:docname="drawing.svg" inkscape:output_extension="org.inkscape.output.svg.inkscape">
  <script xmlns="" />
  <defs id="defs4" />
  <sodipodi:namedview id="base" pagecolor="#ffffff" bordercolor="#666666" borderopacity="1.0" gridtolerance="10000" guidetolerance="10" objecttolerance="10" inkscape:pageopacity="0.0" inkscape:pageshadow="2" inkscape:zoom="1.3133333" inkscape:cx="163.59897" inkscape:cy="99.269387" inkscape:document-units="px" inkscape:current-layer="layer1" width="300px" height="300px" inkscape:window-width="742" inkscape:window-height="577" inkscape:window-x="50" inkscape:window-y="0" />
  <metadata id="metadata7">
    <rdf:RDF>
      <cc:Work rdf:about="">
        <dc:format>image/svg+xml</dc:format>
        <dc:type rdf:resource="http://purl.org/dc/dcmitype/StillImage" />
      </cc:Work>
    </rdf:RDF>
  </metadata>
  <g inkscape:label="Layer 1" inkscape:groupmode="layer" id="layer1">
    <path style="fill:#000000" d="M 86.573158,282.32838 C 83.264973,280.28383 83.53423,274.4948 88.235041,246.59657 C 89.442705,239.4294 91.19941,228.23438 92.138846,221.71878 C 94.968884,202.09017 102.46512,181.38871 118.30647,149.4547 C 130.80806,124.25319 133.83403,118.81869 136.16794,117.37623 C 137.38857,116.62187 138.38723,115.01066 138.38723,113.79577 C 132.09639,102.25155 115.71844,93.772874 103.98138,87.852546 C 99.774926,87.852546 81.213633,99.46005 78.444322,103.8224 C 75.266433,108.82836 69.677128,107.24466 69.677128,101.33827 C 72.295941,89.290565 91.073961,79.301609 100.82456,73.390037 C 104.67519,70.648152 114.43549,64.965918 122.51413,60.762858 L 137.20257,53.120916 L 137.32139,41.177088 C 137.43482,29.775798 142.94634,16.773126 147.66561,16.773126 C 150.77602,16.773126 152.59944,23.146585 152.63549,34.144442 C 152.69694,52.911512 153.0087,53.277001 176.29626,61.884724 C 199.65958,70.52045 223.65645,83.240835 227.41993,88.984651 C 231.27132,94.862612 231.27722,95.489084 227.51643,99.248897 C 224.89565,101.86899 222.92655,102.3908 221.81987,100.75853 C 220.88966,99.38651 216.28946,95.383116 211.59726,91.862111 C 204.85613,86.803602 201.48988,85.775467 195.55508,86.962415 C 183.1711,90.074254 165.94231,99.906253 159.71106,110.8696 C 159.71106,112.05695 162.90964,116.09287 166.819,119.83828 C 190.94809,146.92925 204.18557,189.19424 207.79858,225.29216 C 210.03639,243.38929 216.31812,258.52301 215.31398,277.63698 C 214.52857,280.1116 212.39602,282.13629 210.57502,282.13629 C 206.16729,282.13629 203.36337,275.9201 202.55956,264.36643 C 200.90115,240.52897 187.62846,178.32664 181.88549,167.47755 C 179.74241,163.42904 174.991,154.25256 171.32681,147.08539 C 163.83878,132.43877 154.66423,121.02294 150.38122,121.02294 C 136.91687,125.36152 124.65611,157.70176 119.70915,170.21835 C 115.23612,179.01136 112.72055,186.99554 107.58876,208.68755 C 104.68334,222.41868 99.040666,235.04164 97.348769,248.96589 C 94.165549,279.9272 92.25567,285.84037 86.573158,282.32838 z M 166.17064,91.304991 C 174.99754,85.385094 182.21954,79.320215 182.21954,77.827477 C 182.21954,74.490683 158.36972,64.40816 150.23381,64.305506 C 140.34492,64.180705 112.32479,76.360159 112.32479,80.783315 C 112.32479,81.545815 116.85609,84.528204 122.39436,87.410861 C 127.93263,90.293507 135.66252,94.692808 139.57189,97.187079 C 143.48125,99.68132 147.45427,101.80001 148.40079,101.89526 C 149.3473,101.9905 157.34374,97.224888 166.17064,91.304991 z " id="path2209" sodipodi:nodetypes="cssssccscccccssssssscccccssssccccccssssssc" />
  </g>
  <script xmlns="" />
</svg>